<mxfile host="app.diagrams.net" modified="2023-08-07T01:00:59.884Z" agent="Mozilla/5.0 (Windows NT 10.0; Win64; x64) AppleWebKit/537.36 (KHTML, like Gecko) Chrome/115.0.0.0 Safari/537.36" version="21.6.6" etag="_8GTmAqz1MRlnzpbHMrG" type="github">
  <diagram name="페이지-1" id="FQln9BNGO0MQXJvV-q_f">
    <mxGraphModel>
      <root>
        <mxCell id="0" />
        <mxCell id="1" parent="0" />
      </root>
    </mxGraphModel>
  </diagram>
</mxfile>
